<?xml version="1.0" standalone="no"?>
<!DOCTYPE svg PUBLIC "-//W3C//DTD SVG 20010904//EN"
 "http://www.w3.org/TR/2001/REC-SVG-20010904/DTD/svg10.dtd">
<svg version="1.0" xmlns="http://www.w3.org/2000/svg"
 width="256.000000pt" height="256.000000pt" viewBox="0 0 256.000000 256.000000"
 preserveAspectRatio="xMidYMid meet">

<g transform="translate(0.000000,256.000000) scale(0.100000,-0.100000)"
fill="#000000" stroke="none">
<path d="M1075 2536 c-158 -30 -333 -103 -475 -199 -102 -69 -263 -233 -335
-340 -166 -252 -237 -582 -190 -877 19 -112 70 -270 119 -369 20 -39 36 -78
36 -86 0 -9 -48 -158 -106 -331 -58 -173 -104 -318 -101 -320 3 -3 156 43 340
102 l336 107 73 -33 c192 -86 319 -113 528 -114 166 -1 256 13 400 60 349 115
649 410 774 762 86 241 89 547 9 801 -56 178 -168 358 -312 501 -155 153 -342
257 -581 322 -97 26 -407 35 -515 14z m480 -221 c366 -93 652 -379 750 -750
23 -86 27 -121 27 -250 1 -131 -3 -163 -26 -250 -128 -487 -562 -808 -1059
-783 -145 8 -270 41 -406 109 l-113 57 -185 -60 c-101 -32 -189 -58 -194 -56
-5 2 18 84 51 182 33 98 60 182 60 187 0 4 -22 45 -50 91 -161 271 -184 624
-59 923 61 147 172 296 296 395 146 118 303 190 483 224 116 21 299 13 425
-19z"/>
<path d="M819 1896 c-65 -44 -122 -150 -134 -246 -17 -141 75 -335 269 -568
132 -158 286 -263 508 -346 81 -30 110 -36 176 -36 43 0 94 5 113 12 57 19
135 74 158 111 25 41 45 142 32 166 -11 19 -248 149 -289 157 -25 5 -35 -2
-92 -65 -82 -93 -89 -97 -145 -72 -158 70 -319 222 -399 379 -19 38 -22 31 52
122 28 34 42 62 42 81 0 41 -98 290 -122 312 -32 27 -124 23 -169 -7z"/>
</g>
</svg>
